<mxfile host="app.diagrams.net" modified="2023-01-16T10:19:48.571Z" agent="5.0 (Windows NT 10.0; Win64; x64) AppleWebKit/537.36 (KHTML, like Gecko) Chrome/109.0.0.0 Safari/537.36" etag="LfDGRhzmf_A6BlUE1GsJ" version="20.8.5" type="github">
  <diagram id="AKAh3AhW-xtnxH5p3SFI" name="Page-1">
    <mxGraphModel dx="934" dy="544" grid="0" gridSize="10" guides="1" tooltips="1" connect="1" arrows="1" fold="1" page="1" pageScale="1" pageWidth="850" pageHeight="1100" math="0" shadow="0">
      <root>
        <mxCell id="0" />
        <mxCell id="1" parent="0" />
        <mxCell id="gdQwSKqtDF6BhRBJf8Mt-14" style="edgeStyle=orthogonalEdgeStyle;rounded=0;orthogonalLoop=1;jettySize=auto;html=1;" parent="1" source="gdQwSKqtDF6BhRBJf8Mt-1" edge="1">
          <mxGeometry relative="1" as="geometry">
            <mxPoint x="107" y="400" as="targetPoint" />
          </mxGeometry>
        </mxCell>
        <mxCell id="gdQwSKqtDF6BhRBJf8Mt-1" value="" style="aspect=fixed;html=1;points=[];align=center;image;fontSize=12;image=img/lib/azure2/identity/Users.svg;" parent="1" vertex="1">
          <mxGeometry x="80" y="480" width="54.86" height="60" as="geometry" />
        </mxCell>
        <mxCell id="gdQwSKqtDF6BhRBJf8Mt-11" style="edgeStyle=orthogonalEdgeStyle;rounded=0;orthogonalLoop=1;jettySize=auto;html=1;entryX=0.5;entryY=1;entryDx=0;entryDy=0;" parent="1" source="gdQwSKqtDF6BhRBJf8Mt-2" target="gdQwSKqtDF6BhRBJf8Mt-33" edge="1">
          <mxGeometry relative="1" as="geometry">
            <mxPoint x="450" y="260.0000000000001" as="targetPoint" />
          </mxGeometry>
        </mxCell>
        <mxCell id="gdQwSKqtDF6BhRBJf8Mt-2" value="" style="shape=image;html=1;verticalAlign=top;verticalLabelPosition=bottom;labelBackgroundColor=#ffffff;imageAspect=0;aspect=fixed;image=https://cdn0.iconfinder.com/data/icons/logos-microsoft-office-365/128/Microsoft_Office-10-128.png" parent="1" vertex="1">
          <mxGeometry x="420" y="480" width="60" height="60" as="geometry" />
        </mxCell>
        <mxCell id="gdQwSKqtDF6BhRBJf8Mt-18" style="edgeStyle=orthogonalEdgeStyle;rounded=0;orthogonalLoop=1;jettySize=auto;html=1;" parent="1" edge="1">
          <mxGeometry relative="1" as="geometry">
            <mxPoint x="650" y="225" as="targetPoint" />
            <mxPoint x="490" y="225" as="sourcePoint" />
          </mxGeometry>
        </mxCell>
        <mxCell id="gdQwSKqtDF6BhRBJf8Mt-4" value="" style="sketch=0;points=[[0,0,0],[0.25,0,0],[0.5,0,0],[0.75,0,0],[1,0,0],[0,1,0],[0.25,1,0],[0.5,1,0],[0.75,1,0],[1,1,0],[0,0.25,0],[0,0.5,0],[0,0.75,0],[1,0.25,0],[1,0.5,0],[1,0.75,0]];outlineConnect=0;fontColor=#232F3E;gradientColor=#60A337;gradientDirection=north;fillColor=#277116;strokeColor=#ffffff;dashed=0;verticalLabelPosition=bottom;verticalAlign=top;align=center;html=1;fontSize=12;fontStyle=0;aspect=fixed;shape=mxgraph.aws4.resourceIcon;resIcon=mxgraph.aws4.s3;" parent="1" vertex="1">
          <mxGeometry x="420" y="195" width="60" height="60" as="geometry" />
        </mxCell>
        <mxCell id="gdQwSKqtDF6BhRBJf8Mt-12" style="edgeStyle=orthogonalEdgeStyle;rounded=0;orthogonalLoop=1;jettySize=auto;html=1;entryX=-0.023;entryY=0.476;entryDx=0;entryDy=0;entryPerimeter=0;exitX=0.889;exitY=0.476;exitDx=0;exitDy=0;exitPerimeter=0;" parent="1" source="gdQwSKqtDF6BhRBJf8Mt-5" target="gdQwSKqtDF6BhRBJf8Mt-6" edge="1">
          <mxGeometry relative="1" as="geometry" />
        </mxCell>
        <mxCell id="gdQwSKqtDF6BhRBJf8Mt-5" value="" style="sketch=0;aspect=fixed;html=1;points=[];align=center;image;fontSize=12;image=img/lib/mscae/Azure_Repos.svg;" parent="1" vertex="1">
          <mxGeometry x="80" y="320" width="45" height="50" as="geometry" />
        </mxCell>
        <mxCell id="gdQwSKqtDF6BhRBJf8Mt-13" style="edgeStyle=orthogonalEdgeStyle;rounded=0;orthogonalLoop=1;jettySize=auto;html=1;" parent="1" source="gdQwSKqtDF6BhRBJf8Mt-6" target="gdQwSKqtDF6BhRBJf8Mt-7" edge="1">
          <mxGeometry relative="1" as="geometry" />
        </mxCell>
        <mxCell id="gdQwSKqtDF6BhRBJf8Mt-6" value="" style="sketch=0;aspect=fixed;html=1;points=[];align=center;image;fontSize=12;image=img/lib/mscae/Azure_Pipelines.svg;" parent="1" vertex="1">
          <mxGeometry x="190" y="320" width="50" height="50" as="geometry" />
        </mxCell>
        <mxCell id="gdQwSKqtDF6BhRBJf8Mt-15" style="edgeStyle=orthogonalEdgeStyle;rounded=0;orthogonalLoop=1;jettySize=auto;html=1;entryX=0;entryY=0.75;entryDx=0;entryDy=0;entryPerimeter=0;" parent="1" edge="1">
          <mxGeometry relative="1" as="geometry">
            <mxPoint x="419" y="228.0000000000001" as="targetPoint" />
            <mxPoint x="334" y="308.0000000000001" as="sourcePoint" />
            <Array as="points">
              <mxPoint x="334" y="228" />
            </Array>
          </mxGeometry>
        </mxCell>
        <mxCell id="gdQwSKqtDF6BhRBJf8Mt-7" value="" style="sketch=0;aspect=fixed;html=1;points=[];align=center;image;fontSize=12;image=img/lib/mscae/Azure_Pipelines.svg;" parent="1" vertex="1">
          <mxGeometry x="310" y="320" width="50" height="50" as="geometry" />
        </mxCell>
        <mxCell id="gdQwSKqtDF6BhRBJf8Mt-19" style="edgeStyle=orthogonalEdgeStyle;rounded=0;orthogonalLoop=1;jettySize=auto;html=1;" parent="1" edge="1">
          <mxGeometry relative="1" as="geometry">
            <mxPoint x="690" y="310" as="targetPoint" />
            <mxPoint x="690" y="280" as="sourcePoint" />
          </mxGeometry>
        </mxCell>
        <mxCell id="gdQwSKqtDF6BhRBJf8Mt-8" value="" style="outlineConnect=0;dashed=0;verticalLabelPosition=bottom;verticalAlign=top;align=center;html=1;shape=mxgraph.aws3.ec2;fillColor=#F58534;gradientColor=none;" parent="1" vertex="1">
          <mxGeometry x="660" y="190" width="60" height="70" as="geometry" />
        </mxCell>
        <mxCell id="gdQwSKqtDF6BhRBJf8Mt-20" style="edgeStyle=orthogonalEdgeStyle;rounded=0;orthogonalLoop=1;jettySize=auto;html=1;" parent="1" edge="1">
          <mxGeometry relative="1" as="geometry">
            <mxPoint x="690" y="470" as="targetPoint" />
            <mxPoint x="690" y="410" as="sourcePoint" />
          </mxGeometry>
        </mxCell>
        <mxCell id="gdQwSKqtDF6BhRBJf8Mt-9" value="" style="sketch=0;points=[[0,0,0],[0.25,0,0],[0.5,0,0],[0.75,0,0],[1,0,0],[0,1,0],[0.25,1,0],[0.5,1,0],[0.75,1,0],[1,1,0],[0,0.25,0],[0,0.5,0],[0,0.75,0],[1,0.25,0],[1,0.5,0],[1,0.75,0]];outlineConnect=0;fontColor=#232F3E;gradientColor=#F78E04;gradientDirection=north;fillColor=#D05C17;strokeColor=#ffffff;dashed=0;verticalLabelPosition=bottom;verticalAlign=top;align=center;html=1;fontSize=12;fontStyle=0;aspect=fixed;shape=mxgraph.aws4.resourceIcon;resIcon=mxgraph.aws4.ecr;" parent="1" vertex="1">
          <mxGeometry x="660" y="330" width="60" height="60" as="geometry" />
        </mxCell>
        <mxCell id="gdQwSKqtDF6BhRBJf8Mt-10" value="" style="outlineConnect=0;dashed=0;verticalLabelPosition=bottom;verticalAlign=top;align=center;html=1;shape=mxgraph.aws3.ecs;fillColor=#F58534;gradientColor=none;" parent="1" vertex="1">
          <mxGeometry x="665" y="480" width="60" height="60" as="geometry" />
        </mxCell>
        <mxCell id="gdQwSKqtDF6BhRBJf8Mt-21" value="Elastic Container Service" style="text;html=1;strokeColor=none;fillColor=none;align=center;verticalAlign=middle;whiteSpace=wrap;rounded=0;" parent="1" vertex="1">
          <mxGeometry x="610" y="540" width="180" height="30" as="geometry" />
        </mxCell>
        <mxCell id="gdQwSKqtDF6BhRBJf8Mt-22" value="Elastic Container Registry" style="text;html=1;strokeColor=none;fillColor=none;align=center;verticalAlign=middle;whiteSpace=wrap;rounded=0;" parent="1" vertex="1">
          <mxGeometry x="610" y="390" width="180" height="30" as="geometry" />
        </mxCell>
        <mxCell id="gdQwSKqtDF6BhRBJf8Mt-23" value="EC2 - Linux" style="text;html=1;strokeColor=none;fillColor=none;align=center;verticalAlign=middle;whiteSpace=wrap;rounded=0;" parent="1" vertex="1">
          <mxGeometry x="610" y="255" width="180" height="30" as="geometry" />
        </mxCell>
        <mxCell id="gdQwSKqtDF6BhRBJf8Mt-25" value="Teams channel - tar storage" style="text;html=1;strokeColor=none;fillColor=none;align=center;verticalAlign=middle;whiteSpace=wrap;rounded=0;" parent="1" vertex="1">
          <mxGeometry x="360" y="540" width="180" height="30" as="geometry" />
        </mxCell>
        <mxCell id="gdQwSKqtDF6BhRBJf8Mt-26" value="Engineer" style="text;html=1;strokeColor=none;fillColor=none;align=center;verticalAlign=middle;whiteSpace=wrap;rounded=0;" parent="1" vertex="1">
          <mxGeometry x="17.430000000000007" y="540" width="180" height="30" as="geometry" />
        </mxCell>
        <mxCell id="gdQwSKqtDF6BhRBJf8Mt-28" value="Azure Repos" style="text;html=1;strokeColor=none;fillColor=none;align=center;verticalAlign=middle;whiteSpace=wrap;rounded=0;" parent="1" vertex="1">
          <mxGeometry x="62.5" y="370" width="80" height="30" as="geometry" />
        </mxCell>
        <mxCell id="gdQwSKqtDF6BhRBJf8Mt-29" value="Build Pipelines&amp;nbsp;" style="text;html=1;strokeColor=none;fillColor=none;align=center;verticalAlign=middle;whiteSpace=wrap;rounded=0;" parent="1" vertex="1">
          <mxGeometry x="170" y="370" width="90" height="30" as="geometry" />
        </mxCell>
        <mxCell id="gdQwSKqtDF6BhRBJf8Mt-30" value="Release Pipelines&amp;nbsp;" style="text;html=1;strokeColor=none;fillColor=none;align=center;verticalAlign=middle;whiteSpace=wrap;rounded=0;" parent="1" vertex="1">
          <mxGeometry x="280" y="370" width="120" height="30" as="geometry" />
        </mxCell>
        <mxCell id="gdQwSKqtDF6BhRBJf8Mt-32" value="Application tar" style="text;html=1;strokeColor=none;fillColor=none;align=center;verticalAlign=middle;whiteSpace=wrap;rounded=0;" parent="1" vertex="1">
          <mxGeometry x="410" y="345" width="180" height="30" as="geometry" />
        </mxCell>
        <mxCell id="gdQwSKqtDF6BhRBJf8Mt-33" value="S3 - Deployment bucket" style="text;html=1;strokeColor=none;fillColor=none;align=center;verticalAlign=middle;whiteSpace=wrap;rounded=0;" parent="1" vertex="1">
          <mxGeometry x="360" y="255" width="180" height="30" as="geometry" />
        </mxCell>
        <mxCell id="gdQwSKqtDF6BhRBJf8Mt-34" value="Deployment scripts" style="text;html=1;strokeColor=none;fillColor=none;align=center;verticalAlign=middle;whiteSpace=wrap;rounded=0;" parent="1" vertex="1">
          <mxGeometry x="180" y="255" width="180" height="30" as="geometry" />
        </mxCell>
        <mxCell id="6tnkJMdNqcaahYIErEJN-2" value="" style="shape=image;verticalLabelPosition=bottom;labelBackgroundColor=default;verticalAlign=top;aspect=fixed;imageAspect=0;image=data:image/png,iVBORw0KGgoAAAANSUhEUgAAANAAAAA6CAYAAADBe9eQAAAAAXNSR0IArs4c6QAAAARnQU1BAACxjwv8YQUAAAAJcEhZcwAAFiUAABYlAUlSJPAAACMMSURBVHhe7XwJcJzned6ziz1wLhb3fRMXwQO8D1EiqYukFdlx5aZu4o6bjmu1dTzNTDJJ2qbTtM1Mc9TjSTrjJq4Sx1Is27It6+It3iIFkgBJ3PeNBRbAHljsgcWefd4PgAVCpCQSrGW7/zPzkzj+/f7ve9/3ea/v+6GLE9CgQcNDQb/8vwYNGh4CGoE0aFgHNAJp0LAOaATSoGEd0AikQcM6oBFIg4Z1QCOQBg3rgEYgDRrWAY1AGjSsAxqBNGhYBzQCadCwDmgE0qBhHdAIpEHDOqARSIOGdUAjkAYN64BGIA0a1oFH+kKdDLV2MJ1cOvn33pCny6d83iAWgmH1M6MxAUmJRhhNBhgSfjU4HolEEQpFEFgIIxqNQU+RpKQkIpHr1Ms3Gn4p8UgJJEYSicSWv1uCwaDnlbD83YchxhTm5y5e7kF754T6WXFRBuprC1BakoXMjFT1s192zDrmMTruxO07Y/B6F2Cik9i/txq1XGdSokkj0S8p1k0gIY1nfgGTU25MTvsw4wgguhhFLLI0rNVqRlZ2EnJz05CTnaYIsdpY5POL9MzfeukKTpzulHCErZsKcOTJamzeXEoyZS3f+cuN4dFZRZ6fvN4Ku8MLc7IR/+pLe/HkEzWwpCUrR6PhU0I4gui0C/FAUH2rz0qH3prGL2inH5E9CRL+hFj++oEh3FsIhjA0PIMTZ9rwo7da8fIP7+Dtn3bg+JudOHmiF7dbRzE8No1wNIyUZBPy861I0H9gLLFYXEWh77/egTdP9mFszIvUZAPqNqSjoCADGb8iEcg+7UFnpx0//UkP7nQ6MO5ewM7GImyszkVSkgkJvyKp6i8jhDjh652ItA4gOjwFXXIi9Nnp0IlOPoZAD601MXqffxE/Pd6Bb333Oo5fGkHP8JyqYxYWmOszCgXiUUzPB9E54MIbb3Tjxz9uw9X3+zFln1se5QPEOJNIgg4Rgw5Rfi3kfHTJ5S8A1HroLLgmqfkk4GhJ26ePaN84QmduINLUjWgzCdTUh9jgFOJzXsSZHX0cHppAgUAIE5NunD7fg58c78T1tmm4PCFkpCeipNiKyg1ZKK/OgjHFiEmmdU03bDhzrh9nLvQwnXEqAt5FEJIHRk7HxP/l619JcF1cYgLXZzLqGIk1Cn1aiIfCiDnnEekYQvhyG6Ido4gxk4pPMJWb8yPOtA7Mjj4OD02gMRbEFy71YGjMDV+ANQ+fVZSbgoO7C/FvXtyF//gfDuH3f2cfHttVgkRzAtKyzZhlqPzh8V7c6ZpmlAoxfbu74aBBw88LsWk3QueaEWlhxJkkaZg56awp0G8ugb6qAPqcDOhMhuW7748HbiLI7VK3CHlee70ZV1qmMDrlRWKiAUeeqMTnn61FdXU+rNZkLC6Gce7yAM5e6kNHnwN2uw8BbwR/+O+fwIv/cjfy8iwwGhJUE+F3/+sJvPRqM/O4OI4cKMOLv7UVtbXFSGOBPUav4PEucrwo6ygDMjOSUZifjvT0ZH5vXp7ZhxGkUDzzAbhcfrjcAXiZcobDS6RNSzUhPS0RWVmpsHIciyVJ/fxekPVKs8Pt9mPW6YV7boFjhdR8jIyayUlGZGUmI4djZWelqa7j2q5ad4+NMhvAN//qGsbsHqTlmvFffu8p/NPPbuFn01TrXjSxSM/omQvANuVGOBSFjuNI7ZiRkYK83HRVK4XDTI1nPJxHAD5fEEWFGcjNtaio7nL5MG5zU16cHz+fTL1kc275lLWVBpJoNqq1TM/MY4L3zc0vIsTxzHRyWdYkriEFOTnpSEn5sFxVCsoc1O32wsnnOFxLclgIRmBi6p3EZ1nTk7ieVORkp3JM410dWPm8l/Od47xnHV4135USQ8+6WO4toF7l83OeAGZmvZSDR40f4lqikRjKSjOxa3upkm/ct4Bo/wTi3gUOwIhengddLg3fSMO/X+3CtUftzIDahxC6cIcRx4E4bURnTVXEMTRWwbB1AxIqC5c/8NH4eIqtgQghxPAmi+vrm0FwYRHpKVRSugn7d5bhhc/vUkpfmb4IxZpuxsR3bmJw0AN4InBPezFpdyuSCYF+BqEyCWQ2GWHNtDCyLWJw1IG3TrSjb9AJhzuI0sIUbG3Ix9OH6lFXU/iRBJqnYPsH7bhzZwztnZMYGHUrhQsqS6yo25CDbdtKUV9X9JEEEkUHGDH7BqZws2UYbV12DI971HwsJGJhXgp2bC2iYsuxa2elmpNef//W/f0gsvXRKOQ5Z891YX5+QXXniooysKmhGBkkgDQcxDF1dI1zTTaVDh99ehP27dnAn4fQ2j6G46fb0Ts0x5Q6iIKcZM6tGIcfr0Z9bSFycyxqLW0d4zh5ug2d/S7MkWzZGWY0NuRh7/YS7NlTe08CRelIRPdDQ9O4dWcELW1TGBybg92xAGsyjT87BXV1edhOme7eUaGIsJpA4ohmZufR1WXD9ZtDWOB8E5a7j0YafSrldujxejrNRIyOOXDtxhDOXuiFfTYAt2cRQX8YLzy/BTsai5V8404PQm+8h+iInXmxHuYvHIRh30boLCmSJ6tx1yJOZx1pG0Tk/U7EOscYeUJLTQPakpGfNT7eCB2J/0nxwF042efx+YNovjOOC9eG4PJFkEwPuY3C37erAg31hWrjdOUSoS0Ewrh8YRjjgy4OEENVlRUlpekopudMpkGIgZ661I87nVPKk2VZzUgx63Hp4gjOnR1C2x07ZilEiVTBAMlLhXVyrAQKqawoXSlpdRdLDKTl9jBOn+3Gj37ciaamCfT0OGFjLeZknTbnCcM1HcT4yDwjgxMuekQT7UU85mrDWfGYnd2T+N6Pb+Hk+X40tdjQ1+/G5IQP7pkg5jme072ICUbXgWEXunqnlZcvoicVL7myieygxx0ZdaHp+jg8vkWY6XQO7a9EQ20eZWBW8xcve+JMJ9480YlrN20YnZxXzZid28qwZVOR2gKQ+/ysP5tvjeDmzXHcaJpSRj3LfP7s+T6cPz+EWzenMDHjxxzl7l8IY5qy6+x1MmL5MDI2g/OX+3Ge9WjT+xPqPg8NM8BoPT0ZwHD/HAysQxOTJJokq+eJHCLUUd/ANH76zh2cOtOLS1dG0dNFmYocHIvwuigHZxCTzoAiVXuPHakpJhXRRD8iC0nZxyecaGuz4fSpfnR3OjE0PI+hKc6LWcyYjetllmBnZHzzzS5cos30cd6z0wF4OL6fJKqrzsVnjm2EnmuO2RwIX2xDnM5YRztDLKoKf2lDKxKs6vYKYlOMPJ1DSw2DPpuKXPqSbBi2bVDkMdSVQc9ItPZzH4UHJpCkDx6G1+u3xnD+vRH4FqIqpTqwqxiNVLJsfq6GhOYoo0p3mx1hKjSHHrG2LhvlFZkMx9mKfKsJlGTSw0TnESBJ21unMTo8h3iU4Vk2ZCkTL5Vtm/ajo99J5SRjc62MYVbGL5BNWafThxMnO/DOiW6cOTcMt5OC0iUglamMhV48NSURIX8UM3Y/ujmO7GMZEmIqfcjjtWL0Qv5RRsArTUP47mstaG6lYVLZiAJJRiMsiWYahwFBymSEyh8YcTPizaCkMB0bKrJISqYwy8T+OALJdoBt0o0fvH4bJ9/tQ/8QozVlV5CfhqcO1irHZDYb1NwCjMzXm4fRcsuGO7dnafyLmHZ4cKd1EhMT8wgzo4kztYwn6OjswpiivPoGnHQGAUxOudDaYcPY6BzTaaaIkjryPr/cZ2P6NzqPlLQEZGYmopz6kdRS5CDR/EbLCF753g1co0PqJ9FMegMslKUQ25hgoIOLYczhI4Hc6OmfRQWjvDi4VEYUIZGMY5+eQ//ALJpvTmLOFaSeo7AzUk67F6g3v9pknpycw22WBvZJH4v0BBWd5GRKCte/rbEIzzxdRwKFEeeao+0jKgWTvZy4fwFxRmd9rlVFFR3lqkCbkFZ1tGcM4etd/Mwo4m4fdOkk99ZKGPbWw7ClCvp82u6y7j8pHphAchzFPedH041xXLw0wogUR35uCvbvKkHthlwq3Lp85xKEQFIflZSk47H9ZXj66Rrs31+BGtZJ2awZxMOtEKit045kEmiBpJyYCmBLQy6eeaoChw5XobTMAr0hBi/zYQ+jXpjKqihKRUVxGusYC8P+UgomdUpf/zS+/2obFT6JAL3e3j1F+PXP1uKLLzTi1z/TgKNP1aC4OAXGJB2Vt4CZmQCGelzYsqWIdVeu6o6JoYpnP3u+C2cu9qJj0M15xpHN6Hj4sTJ85tlqfOYz9di8OZf1RTLTDD8jUZBpVAx52UnITDeS4BZFbsHHEai7ZxLvnG7FxaYxpq1CgiifU4Evf3E7tqrowwJ32TNKA6azawIjE241/3lvGN75MCor0rF3dzGOHatDVYUV6alGzilA24rRAPVwzYfgZs2Tw3Rtx7YievI61FZnMgU3YmbahzAN3MBUzGjWMV1MVqSVo0bilPr6p/DelSGcOt4P12wQWZzPl7+8Db/1m9vwhS9sxfbtBchjej3JFG2e9WqIciikXWRaE1mjZSoCqAydc5G6MSPTjE2bctDQkAUv17PAqGogkT3MMFy+MDZT9wf2l+DAgVLs3FmIHTsKsIP/79lTpmxHL6mhOCfJ1KIkyLRbZTdUmiKSkCehJE/JKzbvV+3qSFMXU7ce1WUTkhkfq4dxL9O2TZXQs9ZW4z0gHpxA9LZS4DU32yhQMpmGlp+fij3bC1FZnq0K3dUQQxSBWTOSmMunM3XLUM0DaQCYl7scKwRqZZ2SSONNSzYiLycVR2johw8yd6/P57hpsNCTTdFQZ+ipQuE4PX0qaxmmgox6UiALxpgi3G6bwLuXhjHNSJSVZcbRZ2rw/LEGbN1cpOZYXGjlWCbEKa+efocynjnXInbvLkF1dRZTMJMay0dDf/t0J67cGKWHXCQxktFYn4Nnn6zFY3sr1LyKGG2sNJJJFrtuGquPxpzJejCDRKuuylNpkGA1gbw0luQ0Ax7bVYYKykOiz7Vrw/jpGx3oH/EomW3ckKWIfuTpWtWYWImwgqAikI1Ec6ktAjHKdNZwzx2pwxMHNqCRNU9RQbpqkjhY7AfplYNMDyVFFGI8e7gaB/ZVqlqlhDqRJohz1gc/HYZPGgpGHQrzLdi9vUzVcxI55CiSg9El4AuhvCyThCnCZ59voHGXYkNlNrJz6JCo5146r/m5BUTo4HKyEpFLmdXVFDDqm1VdLKmcZB051G9lRTYKOc+evlnWxPPQkWGS9hUXWXD0yRrKuFzJuKoqG1V8hlzlZVmqFtSJM6HB61gCsJBeqp+5TolGqqnAn+npVOOLi4hPOhG51rnUqmYE1Jfk/CzySLNAUr6HIY/g4T4lkB1BCukT9cq5WAsXI90mudItyar2WV23CJhqI8YxS1iUP3e4DM8crsHjj9Uy/y/F4/tr8Llf28bUKEd1e3RU8gKV7aa3W+msCezT8ySFHb54WLXON5Sl0hBKsG9vNSOFVSlSrs0syvfvqkJ+ZhISGfVk/8nh9mJqao7jMcJxbKl/Rmxe1iJ+5cVLqdhD+8pxcH81PXgFU5wczo1ecl819myjoksYUbkG+7QXgyMudXD0XpAIZ2ZKKt0wF72hNDpukFgXzo5hmmlUHuuGzx6rwhOMdKXM0Vei2P2QajGivCoDx45uobPYzMhRrOT27JP12NNYiGLKM0QZmbnOyrIMvPC5HTj69GZs2kgZ7K3hc2qwa0chHVsqAswo/AusNRnpV1QrepIu4Pbtxfjtr2zH1393L7764m5FHnGYQu5iRpm66jyUF6Qhz2pCamICnclSt03WKRDHYKHuy8tyGCk3MCOpZWSpItGTEWPEkquSTvGZfYyiT9XjqUMN2M3f79r+wVVRlqvGUeNJlKkugXH/Jph+bbeqZ5hPIzbmQLR1EKGrrYh2DSPSNYrwhTZEB6ZUbWTYWQ3jk40wNFYzEmWosR4WD0+g/wcQhflJTL1pKQJJ2F+BeC45gGlhcSvKUT2We3BXNnilTcqSVTmVIA3nyvsD+PZ3Lt51/d3LV/D2qTuYo7fSGXSKvBIJpL6QblNgYVEp38u6TXL7uDeCjCSpC7KUB10NaTw8eage//YrB/Df/vhpfP3FA4wGm1SKej/IM06y6P/G31zFN1+6jmvtNqTkmlFRacHOxnwcfFzSsNzlu+8N8WHM9JY8ekYi5XO3OqUbKu1pOZIS5H1Sz6Qy2iTKKffl7pdAMgEp9lNlXZIGrZGr3JuTbWFEzcfObZWcV55qrU/S2fT2TalrYGga4zYX5v2LWOTaIhz+A7f28SBv4eM/Bhp4BqP2Xd3Zj4GOBEyoKITxUCOMT2+DnmSWNC3S1IfQyRZErnaqGimhtgjGoztg2FEDfTGJ+ADPuB8emEArYViMDnLxa0GcQhMjvBckRZN9Azlwapt0qT2MOVngsmdagRBIhK+jwtItZkWYFYgxiCeUaJFEQ1FPvcfzxOt7SAqZj3gqIVBn7xROn+u663r3Yjda7tAzRSNIZa2QlsqQz0EjzKdlIaHFiGojL/D/SIhrC0SRajLR41pUXbAa0nWTSHTs2QZ86YvbGD3Ec5YzTb1/a1w6W+1ddpw814fTlwbRz3omMd2AgoJkVFdmYGNdIXLXpMNrIfKSusVEkli4BqkhVkMctRiiECjE+wzUl2xqC5FW6imBEERax0IsNegaRYoc1eslTIuCdCYzM6wzex14//1hXLjYp66LF/txs3mc6XWAmUEMUX4mfvd0PhJRPjNIj5BgWGpnP8hrLBKJZONT7d/sqUesqghBgxFepriubjscE/NwpVqwWF/OuqcBhupi6DMtYsjLIzw8HpxAFIyJgjQwEoB5vKQ+crYrSobHxPjuASl6bzQP4Z0Td/DGWy04d74dra3DquPyqCGtbuk8CWnFy4vCA8GYSkvWXhEqTIrcsuIU1FbJaXGmc6x/hKw/g7h58cqiXK5dGZ9Y5iqIQxFSSV0nm5DZ9NbWdNYEH+PhxOAlrRKHYBTj57iy8ZnMsWTMXxRI80Si+vs3hvDn3zyL//wnJ/DH/+kk/ux/XMA3/vIKr6v4iz+7jG9/+ybTZzd8lO0DQzh7D/J+YlB20oKOMRL5d23ETE0VhtNz0Z5biuayWjQ3NGKqYaNK+XSpS3Xpo8ADE0gvUYAKTk01w8Jc10iFhyTCuP1qf2ItJMq4PQu4enMcb53qxTvv9OLWLRuLRg8W6d0fNYz0pmZTgrJ7MXbpBO3eXsqUavOHruePbcEXPteIL76wA7/5xZ3Ys7NCdRHF065EPEUmuWjgTORUwR5bo2Qhq3T/JiacqlvVN2DH2LiDKeG9ayApyvkRbGaBfPTQBhzcW4qyQguCzMds46yJep0YGJhWUfsXAdKEuN0+jotXB3H11gT6RpyMMiHU1OZg/2MVOHiwCoe4jj27WRPlJNMhMMWmjKQp8POCqMRNxznsjqDFZ8BVQyYu5pWr62x2Kd5MLcKpiBVNLgOcoUfnnB6YQFIAJyaaVIolLV1zUgKCJIltxou5+aX3KVZDIsKs04/3mm04fnYYp04Mo7vHpfZzZHPuUUO8tzXNTFNfigo15VZ89kgDvv7Vwx+6fudfH8bXvnIIX/sqrxcP4/DBelW0S00gEcBAIuoljTRS4GY906WYqpOEMKshDQfZILzVOoqLl7pw6QrTw9sjKgW8FyQySvR7fF8Ffvuf78BvPL8RDdU5CPgi6Ol0oenaBK4zYk/YnMuf+HThZ1145dogLvAamQnAkMaUdWc+/t3X9uFP//Qo/vwvnsP//Mbz+KM/PIwdm3KRlcIMhSJaf4L0ySDkEac0NeVDa58L53q8OBlIxsmiDTiXX47TlkL8MJaBV+0GvN69iLF5ZiePiNwPHoGYN0oHTU5d5+ckIZ2p3II/hJaOGbWRKMJeTYyJCRfutI3C4yO5xJMTUkdUSjdNWpCPGBIZpXgXEsy4FnD51jRGJr1qT2dt5JD9rFNn2vD915rwgx9dV6cXZmY9ihDS+cplKpaZZlLHVCypCXC5vVzLuGrjr4acfGi6McL0tAM/+Ek366thdPTY1ese9wVFIXWFRLzdOyqxdVMhiguTYc0zYzYYxA+O9+Bai+1D8vx5Q2pCOYvmcC+o4zRx1jcbSjOxb1cZykqX3hiWrqa8VSubpSFaZlAcBC3rk85a6iW5HhZ2JzOc1mm82+HGeyMLmIoYaGOpeG5rFl7clY5/tpF2Sgc4uxhHiyuOl7vCeKM/DH94/Sx6CAKxBqJx5manoqYyiwQyIugLY9zmRWvHNK69P4Lu7ikMDM6gi8X79eYRXLs+onb7TYkJSLEYkV9goadf2lx71JANx7KSLKYRBnjnQxgcn0d3/6zan5iZmVfGL9fYuBB7HKfe7cGbb7fjrbfaMDjkUPtcUuBLazbTmozCnBTkZyWptNA+68XNVhvaZX1DM6opMjQyi46uSdxoGWONMI7r1ycxNjbHui+svOJHQeQo+0QV5blqs1T20nL4PA8dUnObHbfaJzE4PAu/OJ9PCbIGcSgB1jVyeFbPJUlqbDKz/qXRS4ouKZ59xoPRMRccNOYAU9F7NRFkLIfTi2HKrLvXruyjn3L0LSxCb1jaL5S0d4rZzADX3c3fd/XwnsFpdUpDzgCuRigSh20ujM4JP671ePDe+CLavXrEUlNQUWzBwVoLjtWl4EhVEnbmGVWt2eeN48JEBGdGwrhpj2LSx5Sc81rjWz8xHjrKlhZb8cS+KljNSQjPR2CgwC5cGMAf/NFxfOtvL+Ef/vE9/NX/Po+X/rEZ75wdhNvlp7EYUFyViuLSdLV/IAb0qFFcnIWtm0uRnmBEAj1nEtMvObj4ne9do4EPoqvbpq7X376Fl155HycuDOH8lXFcOj+GEO00L8eiDERSVYmQ9RuyUFuRiQh1NzDuw8XmKbzyWgu+y/HOvNuOV1+7jr/9h/fQ3DEFx9yi2ssoK0hH48Y8pKV88ggrEegr/2IfSrOtiFCeZtZcg4N2HD/ZqurFTxMSHNRpa2l4JOrR1TeLt8/2ofn2GElgU23sd07eYRS/gY7WWbgc9468QrabLUP4/o+a8L++fR5/Tfv4+1euMv11IYkRIj3VgGmS58LVIXz3+9fx139zAd/81jne8x4dXRvJd3dN6PJHcLrDg7c7fbgyFcGtWDIcOdmors/DjpoMbC5KRJ41EQ25ifi9bSnYn2+Ck1HIwatpOor/3hTEuyNyGj1CAj1clH9oAsm+wLatpdi1o5iRKAPxYAz2aR86Rx24fHMcZ6+M4DI9cmevQx2VCQSjyM9Px7EjddjI4nnlAOXPwM+DNQAoFLVBew+Ik5C2tHi4GK+4tJiplNiqxUsKJ6nFU4c3YPe2YugorMEeJy6+O4wfvdaGV165pa7jb/fgetMEbMybs3LScORoHcrLsxSppdO41G1MUJHh8ccq0VCfjTR63dkJL27fmsTZc4N4481upoADuH5jAhOj8zR6PbZszcauXaXYuqX0Z8eLPgBXQG8nfzMi5IkgumqdcnJ508ZC7NlVjE112TAwvRiSeZPgbW0TKtqt1F4iB6mjYqEo4A0jGgirVx+kdb8aIhaJHhHpivG+xQCjCO9bm8rK96EI6wLOKy73UFdyckFSR5GD7PnU1+SgqiRDbTw5HQH09LsYtbvwysu38PLLzWhuHmckCqGuNhOlBWlcXwhh6lTtCqw8h/ObojNop7O5dmVUHRa9enkMk6NeBOk0Fv1RTE/60d3uRNNVOjX+/jLT4ZaWCUYqh0qVV+Cn7Ma9UVwhEd6b06E7mqha8VsLkrCXTrq6gN+TlGZGnQzW6VtzjXiiMAGH8ugIWNaO++K47YihbSaKQWeE490tk0+KhyaQpEqyV/HkU5XYu7cIxoi0swl6kX6mc7ep/MEJn2opm1g3SX+/rCIbv/H5bTTGAuXlRTkC+c9IgzEvxGCm0E3Mo6XWWv71XaCOaRRxGClAPZUeF6NatXZpseflpeGfvLAZR4/UwhQ3wG1fRGerAz95rQt//1KLuq5cEMX5+Qw9du8txe//wSFs3py/PMoS5LT35k2leOpQHQ4+XoKqolQYRMlMGW7fmcWJU8O4edOO8TE/gu4w8jOS8eTTZTjweCU2bSojmROXR5I16pbSX3pyA9cQY+oA2vXKGqXhIX905eDBcjzBZyVzXvYR1lzN8jrGOFPFGXUmbQWyZB3lZKKx6ykLkcPaNES+lRa0jr83i8OhkYSZ9nzoPn4v3UUd5WriFeMlMo6QfDI9ORK0a3sJttTlIYEOScZxOYN4+61e/N3/acZL376J4SE3iovSKfMqbN+ch7iPz+MY0sxZgaTG0ql1OPwYH5rHcK8Hw31Mq2cWEfTGWArEMO8IY2Z8ASN9XjoQpoV9HkyRVO65IOf0gcPxBuOYIAlu+fXoiJgxlZiCmiwzjhWZ8FhZIsoyPigPROY5rGGFQF+q0iGPfs1POXg5vzFPFD2zEXi5rofBuv4qjxxPt03OYWjYga5OOwbGnBizz9GDLb1tKpthaSzGs1hLlG/IJ+Hysa2hYGnTjjWGQB4v3vStt9tw48ao/IQ1QQYatxagsjKfNYFF3SfeS16QO32hC52dUwh4QygsTEN1dTZTtjLk532w6SieWk4PDw+7cFtOKI87Vf0j+1ErXlz2bDKzUpFXZKXXzENjQ74697U2rYxyHR7PAvN7p3r/qY/1lJwv88wH1WsasokpUa+QKWlFeaZq7ZaXZav3blZDIkj/wAxrpFG4XAGmiHocOVKPxsZi9VyJxvIsm82Fnt5pdZ+ftZCJtVdNbbY6E7ZpY4lqjvj9i0xLB9V9tol5pKYZUcLo8NTh+rsO80qT5OatYfRzzuNjHiSmGFFRkQV1SoIRbwVSl8ifFOvtncHoqFvdV12dq/5iUIY1RaWz0lIfGJjFLUaD0SkXZhxehEjKFKa5Odkpah2VVYzgdIyDg05GpDHk5jMSbMjBgf3VqtaTaHjtej/1N0lS+JYJQYIJx6TBJP9LFP2AJ0Qc6ZlmlJZmcD6yviU9L9D4B90RvNq1iPF5OhF+9mi5EXsKjShiqWAmadbCS+c8yUj3zkAIt2ejmA3qcKxMj+cqElBoNSGFunxQPJK/CyfFnShriIWfFNcSymP0fLLDbbXIgUIaek0hsrOW6ot7QV6gmnHMq6/FoKyWJHVAdPU5MDF+aRe73H5FKHOiAfJqghirfGYtRGFBklkOmMofMpF3TcTTCjIzU9SGp7zNKZHikxwdkTVOz3pgZxoiB0clpZBXDOSQaylrL3krVAxuJbKuhhBaXgORuUvOLfcUFWSo1G11NJY5y1u0UjSr+/gzicby8qE8Qzpdcs+U3a0aM7KXxl+zXqOR8fer32cSvYhM1YkKzlXGkbXKKycrDkwg65AX3eTtVpGX3Cdrkr+gJPfJMwUyhshgdHRWHeNZ5DzSOJ44L3k1JZt6lrk5SUhxGEJ2SWPlryvJ10spnFvtmcn2xtpU8n5Yqkc/vD43o1CLLQI3Mxch0I4iA8qtH63HRUaejqlFDLqisC/osKMgATvz9dTB0tbFg+KREEiGEMMUoYjS5HsZVWxCPKva3DRLm1PSsntPUl6TWDnaIwqUz8m1elEyphz0VG1dfqM2O3nvygtbayHzEKWJUuVz8vXKchP4GZmPpHzy2fvNazWEwJJGyXjytYy3skZ1OoNEuN8RFLl/5VqZgyhtrUzkd+o5fMbKffKQpWcsEU1+vjKHpXuW00Ma6d3ykpSNNQ+dmfr7EzIOfy9/8XX1aQpZh8heIqCqo1buW37eyvzkPnmm6Gqp8F4yblm3EET0IM8UWxB5y+eU/u9yEEv6W1uvfTTuvT4Oo1rR8r8Mn0yfYFpznGktZM5y1EiVAvxcspE1Hj+3Mr8HxSMhkAYN/7/ioZsIGjRo0AikQcO6oBFIg4Z1QCOQBg3rgEYgDRrWAY1AGjSsAxqBNGhYBzQCadCwDmgE0qBhHdAIpEHDOqARSIOGdUAjkAYN64BGIA0aHhrA/wXfXn1CqrRD2wAAAABJRU5ErkJggg==;" vertex="1" parent="1">
          <mxGeometry x="180" y="420" width="71.73" height="20" as="geometry" />
        </mxCell>
        <mxCell id="6tnkJMdNqcaahYIErEJN-3" value="" style="shape=image;verticalLabelPosition=bottom;labelBackgroundColor=default;verticalAlign=top;aspect=fixed;imageAspect=0;image=data:image/png,iVBORw0KGgoAAAANSUhEUgAAAP0AAABMCAYAAACmo7EsAAAAAXNSR0IArs4c6QAAAARnQU1BAACxjwv8YQUAAAAJcEhZcwAAFiUAABYlAUlSJPAAABGOSURBVHhe7Z1rkBXFFcebpwjsrqggwiIgIgpEyycPK1KJhsUYLV+gJpXEyJpKvkjEpMpoqZgUViURCCYfEgFD/BIFCysaI+v7kSBoJUZll4gi4C7KW3ZBEQTN/fWdXnp7p+dx751lyT2/qqmdO/fevj0953/69Ome2S5f5lCCIJQNXYO/giCUCSJ6QSgzRPSCUGaI6AWhzBDRC0KZIaIXhDJDRC8IZYaIXhDKDBG9IJQZInpBOIw8t3aHWrSySX2y/2BwJHtkGa4glID5L21UfY/qpr4+8jg1/Lijg6Px/GTZGrV+5141oKKnmnHhUDX2xIrgnewQ0QtCCbj+oTfVp0Fvjegvyol/3NBjtJijoIf/y78/Uk+s3qpfX3/2ieq63JYlInpBKBKE+3hOtM/nQvWte/YHR/NcdOpx6rqzTowV/+qPdqvZz7yvHcf4nLO4edJQ1adnt+Dd0iKiF8qeLbv354R7QPXOiax3j26qslf34J30rN+xVzuAlRt3tfb8iPfysQPUZbktSsg4jzv+tlaH+0QLsy89NRPhi+iFsmfxa5vUY29tCV7lQfj9+/ZU/fvktlwvfXJOhOOHHaOdQlIQP6G7K/648J38wPPv7tDRwe0Xj0iVI0iCiF4oe/6cE/0yR/Q+zhxcoc4/qUqP13EKcZjQn80e88+4cFikmI3wcRT0+KUUvoheKHs2t+xTG3IhNQJl27PvoNqWG5tv2b1Pj9HZD+OU43vr3v+C4f3UoKqjgqPhGPE/nOv5ATGTtCPk97FwZZNO8JU61BfRC0IM+w9+odZs/kS9+WGLenPTbrVux6fKVc1ZgyvV988fHNsjk7CjFzcJv7iknenxSyl8Eb0gpOTjvZ+rujXb1dPvbFc7Pvk8OJoTU2776oh+6rvnDo7M1tPrz39pg1q1sVm/RtCM3X3fMcLHQfz8GycHRwtHRC8IRbBi/S7194Zt6u1cD25z5VdOUNeePVAdHZH4I8OPoBnrx43dzSIehgO146uDo4UhoheEErCp+TP117e3qhff26n2HfhCH6vq1V19+9xBqmbU8aoLYUAITPHd/uTaWOETHSB8hgWzLx1Z1Mo9Eb0glBBCf9bSv7Lu4+CIUqed0EfddvHJqt/RPYIjbXGFf3suhA8TNfmAO558V39mwXVjCx7fd5uVI9gXBKFICOcnDu+nzhhUoeo379EzAdtz4/4X3t2pRvbvEzpu79e7hzqnukq9s/UT3ZMz1j8795rjNgMq8jMEbzS1qI8/PaBnDgpBenpByAiy/r97+QP18rqdwRGlvnfeIHX1mQODV22xQ3icw2+vPD20Nzfj+0LDfLm1VhAyome3rurWrw3TU3lmTP/Q6x+qB1Y0qrCeNh/aj9DLgbfu3p8L5dcG77SldkI+kcc8fiGI6IUjguqB1a3bNVdeExw9MrjqjBPUnZNPUT275+X2ZMM2NeeF9XrfhSTejElD9T5j/ftf3qj3bejduYWX97kfPy0iekHoAM4ZUql+fdmo1pt5SPTNfmad3ndhPn56MC2HqMOEzWo+ePiN/Aq/NIjoBaGDoBefc8VpanBVL/36tY3Nat6LG/S+CzfmjBtapffDnqzDmJ/enmFA2t5eRC8IHciAvj3Vry4/VQ0MMvHM6z+4KnxsPmPSMD2+R/D3v9Q+zKe3v/nCoamz+CJ6QehgKo7qrmZ/a2TrlByLeljV50Jiz4zvWb3HZkNvz0M60s7Xi+gF4TBwfJ+e6t5LT9UOAP64olEn5lwY3489sa/eL9UDNEX0gnCY4Hbc2y4erm/UgXufXRcqau69N9N4hWTrXUT0gnAYYfrNPEkHUf/+lfZjdxPGwxP1+QdoFoOIXmilsbFRrXx1ZevGayF7EP2Zg/Ir67hr71+N+VtubS4fk3/YRil6+w5dhlu/ul7VLa9Tr654NTiSp6qqSo0eM1rVTKlRY8aOCY5GE1XWhIkT1OQpk9WQIUOCo+Fg1JuaNgWvDjF69GhVWVUZvFJqySNLVEN9g/5NA/WcftP02N8wGEFRhl2OgXImXDBB1dTUtPltlyR1bmluUUuXLFXLn1quX9O29/zyHr3vQnmLFizS58j3XChz2rXT1NRpU2OvjVs3tx19JPkei3IM4yeMV48+9mjwKg/nyjWySWNPLsa+oKWlRVVWVqohJw2JvT6FwtLbHy2pVwe/+FKP9/8wbYzq0a3trXnmvnp6/gXXjg2OpqdDRI8wZ86YqS9uHBj/q6+3FbINxjnvvnmJykL8M386U/8NY+59c/XmsvBPC9WUS6YkqnftD2vVrF+E37OEiOrq6tTCBxaGCj0MDKr2plpd7zB8dV66bKk+T35n6tVT2wg4TCTgK8sH5zrz1pleo3fLM3WKI8n3fKLnewsXLAx1WIDouT5J6gFx9sW54wR917wYFq/apB57O/+svmlnDVTfOWeQ3jfQy9/0yGq9z8M0SPIVQubhPY049aqpiUQKPh/ERaWcpM4DEC3foSdLAz1G0nojaD4XxooVK9QtN9+SWPDAeWLInKfPkH3Q29VcXBP7PdOWttCSwLlSfprzyQr7HKLOVzvB3Oe4nlGY8uLsi8+Zdoj63UKYdvZAfQ8+LHtzi2r+7IDeN9DDmwU7qza0HwIkJVPRY4Q0YhrCPLK+ILneyw3lk3L3nXfrzaV6SPgTSEwPnxQ+HyagiRMnBnvpwUjn3DcneJWMWXcm632uueqadm1J7zl3/lzdyxJp8ZfXhMg2CKL2B7UlN/i0cD3NOVRUVuh6Eh2xcS4uXE+f8MPsy24P0xZ2uSaiKiU8Xtsk9Q7kwvzH326ftOMpvLDKmbNPQ6aijzJCLhSNyF8bxrUuN95wY9G9C729GeMafONxVxBJIMR0IRQMM0COmS0K6pw0qsHpNDXF33VF5GGPfWl/jJpwmbAVp6vzC7m/vF60eJGqe7ZO5wUM1KnUBp+GhoYGnbMARL7q9VW6nkb0nItbZ5h116zQ9sS52vaFwO32MG3BMXIbBr4TF0GkZfJpx7f29tyYs/fztlN4ZvUdU3vuYp2kZCZ6GsRnhDTqmrVrdCPyt+GdhlZP6vb0NCoJsDAwWL7XtLlJb/RQbs9kc89d4cmsKKqrq/WFplzXQdnQW7hOBcgN8D2Sfhgi9eS8zcbrqPEhoaRNVHQSB58xYgHO7ennnm7X5i6Mi/mcLSKur1u3jsJEGVx7RB6WY6DOjy57tE2d+d7c37SNyDgPe/hHeQjcx7z757Vx1jiSUtK9axd1xRkn6H0Ej/BtWH1nFusUGuJnJvooI3Qb1SRHEIHb+7oXyebBxQ+2KYvv4vFdD2/Ay6fxzIgdY+dCUy49iq9sCDtn6sf3yJ77MskkyOwexMZ1eL7oxMY4GdPzTbsu30ZzftN2uMA5JSnPgIhwFIa5c9LlBEoJ7RUlTsCu3FkLEqv20MR2XJwb7RUH18vgc/bF8M3T++vFOPDMO+2n50yIv3pz24dxJiUz0TPN4SOp8BCRL1qg5/X1UL7pKVjycLLfxgAQu92LhBmRjR0iGviOXUYYfK+L58mJYWVGQbsYJ9Mq+pw4cHi2A+F42ukszmPmzw6JIguDT4otvCiwEbe3J8FqsCOfmkv8UaIN0ZtNkigrDb16dFWTRhyr9/lHHDxGy4asPWN//rV1IWQm+qgekaQKySAzD+ojqjGnXusfU3Kh7R7JBsO3Pb0P0zu6UHZUmB8FwiOUJEs84bxcHYOHQpAJjnKESeoL2lHNb+uoDG5bRrVfFDgQ+/yXPnJINB0FtpXGYbkRgclpuG3iijkK277TOuYkmBV48NJ7hx63BWTxucOu0CfiZiZ6MtdR4qCHmH7DdG38eNsww17xz0Me2SXuoke9X18ff5GixrljxoSXTYIpDIzCCN1kncMSSj6S1BfoqXxRhW2YGGyasN5lypRD4mhuLnzqqFBYKJMG1xaMXbmi5zUJ0STb7pbCQuukjOzfWw3tl38U9j/eP/Rk3VKQmegxvqhQ2IDxk1Eef/74VKFinNGmDV1LQZjjogenJ3cNLAuieipb9GlF48LKNIMvydqZ8DlplzBx+zbbaWfVBvy3HGC+/t1tn+r9UpCZ6IGwigxrEhAMIb8d5kblBY4EOJe06xSE0uOLfho/SB5tRRE39VooYwbms/Twn02l00KmogeEzzxw1BjfBpEYL1psj3Q44RyipnPIPrPc10zj0UZZUkw472KH9L7cSWfClxNxnYFZiJN2SxLRFsKoAX30E3XhrQ9LN5zIXPTA+JipL4w8ah7dkGRlWVzyJCof4JvrLiUkuHzGRvTDzADheEcNQ9yQ3Fe3JNhDlcjcSQYJrkJwcyKmztycZYNdYKtpt6yuYbeuXfR/x4H/bmmbwS+GDhG9ASNnbpjFOFHzoSa7GmlQMckt3/v0TKXs9Xz4nA5Oz80mdwSus12+vLCpNiIYe0UfRm9wI7Okw7NShdk+XOdjrr/r/DuLk7Khtwf+ccbGj9s/WacQOlT0BsIqM4cchgnvoxJTUVNFjKV92VXbSLPE63Q8UUbWBocDtWdTuJOskN7ejcLsuW3XSScVc9LZCQOzJGnq7k6HGhtwbaHuqegp5MNB9TH5J+fCpl37gr3iyFT0rHaKujhxYTYXxTdmJMQMWwbK72HQPnzz76XG53TCMr3UOe2dgIVgjz3jcg5h0N722gryEnbU5F7PJFltrqMdOSSB9gq71yEMt3zsyTgn6m7bF1PHpsPpLAyxRd/8WbBXHJmJ3hgVU3Ek52hQuzdjes4nTjvpZ68Ac6F8ysa4KJvfYHrMd+HC1vZnhS+jSz2pN3XEeOPqXEoYVthtSw+Y9I45pqlsJ0HU4F4bRGRHE5yT28va8LtJHE9YFITo46KjsPLdOruvO8MdhDYnBXP10OlFb5I9NCAXnrl4jNusQqNxfYZuj3nZj5oSoWz+zRFl8xu+MjFGkmcdRdTQhB6ThTqjR42OrHMWsGLPFibOl7Yj0ggzdt43963bUE5YbsTNVyA6O/Fn4Bh36sUJF9zcAPWnrnwfpxkG5brl4/Dc+rmO0HwvrM4uST5TLDw9xzwxd/uez/XfYsnsyTkYs++CRMEFINNvwwXmHvC0YaANU2PumFMbXs6gw2AqxhcV4GR8oSvTb0Cdx503riQrt+y6FFpnGwyb9gyrmw55gzDdZ9S0I+0ZBg5s8kWT25XNd0gmNjU26c/YZTOrQydgcM/DPWdmP1jZaH6Dsvm8SSRiJ+5CLxwFNwy5NgBxdSbLT5sYB0L57PO9pG1eDD9eWq8+bN6nhh57tLr/qtODo4WTWU+fNjkDCJ4L40Lij+NJpvtcKDNM8FlDnekNk8L42O5xsoS2cG+VNRhB+gQPGLxv9SROI2zemu8QLRCZmbIRonk0WRrone3foGyiJ7NaLo3ggTqHtYepMw6GJeN2+bQTRLVTqegb9PQtzpN0CiUz0XMXVFIjJplCJp+G962e4jjTfXh5X3LPhs9wn3rUxc4ajBmHE1Vf3sPwGXr4losaAyslxtBpo7j2RDRsNjybIGw4AIiSc4oqlyEb1yZM8EmExG/EtS3gTLnrMM4G7PZwz9UH9t0RjtqE97v2dvLw3oDB4jFNaM78NQ3MYhHCMS5GIeER5TLFwnjPzIlTFmVTXhKhY7S+iAQB+hwQ5+Obg/adC72DCQuB+mEwttFzToS/LoSWnBcUWuc4qJfJzNvXyNSRnrRdUixi2tVgzpsyOWdCZSI29/rYQrfPF9xzdtvY1J0pQtqQstn4nF1OGuz2oFza1Szm0fZVRFunpXHXZ6o5EHyhd9bZdOgjsIUjG8a9xnkbeFpRocISDg+ZztML/1+EjdXlhqIjDxG9kBjCWh7DZUNY7kvqCZ0TCe+FVIRNRTLuJwkmHBlITy+kguSVHeaTHQ+bZhU6L9LTCwXBvDXP2Us7xy4cfkT0glBmSHgvCGWGiF4QygwRvSCUGSJ6QSgzRPSCUGaI6AWhzBDRC0KZIaIXhDJDRC8IZYaIXhDKDBG9IJQVSv0P3ol5zgP0wbUAAAAASUVORK5CYII=;" vertex="1" parent="1">
          <mxGeometry x="177" y="449" width="66.58" height="20" as="geometry" />
        </mxCell>
      </root>
    </mxGraphModel>
  </diagram>
</mxfile>
